<svg xmlns="http://www.w3.org/2000/svg" viewBox="0 0 800 380" font-family="system-ui, -apple-system, sans-serif">
  <rect width="800" height="380" fill="#1a1a2e" rx="12"/>
  <text x="400" y="35" fill="#e0e0e0" font-size="18" font-weight="bold" text-anchor="middle">Where Your Chrome Data Actually Goes</text>
  <!-- User icon -->
  <circle cx="130" cy="120" r="25" fill="none" stroke="#64B5F6" stroke-width="2"/>
  <circle cx="130" cy="110" r="9" fill="#64B5F6"/>
  <path d="M 110 135 Q 130 150 150 135" fill="none" stroke="#64B5F6" stroke-width="2"/>
  <text x="130" y="165" fill="#a0a0b0" font-size="12" text-anchor="middle">You</text>
  <!-- Chrome browser -->
  <rect x="260" y="85" width="120" height="60" fill="#2a2a4a" stroke="#FFC107" stroke-width="2" rx="8"/>
  <text x="320" y="115" fill="#FFC107" font-size="13" font-weight="bold" text-anchor="middle">Chrome</text>
  <text x="320" y="132" fill="#a0a0b0" font-size="10" text-anchor="middle">Browser</text>
  <!-- Arrows from user to chrome -->
  <line x1="160" y1="120" x2="255" y2="115" stroke="#64B5F6" stroke-width="2" marker-end="url(#arrowBlue)"/>
  <text x="205" y="108" fill="#a0a0b0" font-size="9" text-anchor="middle">searches, clicks</text>
  <text x="205" y="118" fill="#a0a0b0" font-size="9" text-anchor="middle">passwords, history</text>
  <!-- Google servers -->
  <rect x="500" y="30" width="140" height="55" fill="#2a2a4a" stroke="#f44336" stroke-width="2" rx="8"/>
  <text x="570" y="55" fill="#f44336" font-size="12" font-weight="bold" text-anchor="middle">Google Servers</text>
  <text x="570" y="72" fill="#a0a0b0" font-size="9" text-anchor="middle">Sync, Safe Browsing</text>
  <!-- Google Ads -->
  <rect x="500" y="105" width="140" height="55" fill="#2a2a4a" stroke="#FF9800" stroke-width="2" rx="8"/>
  <text x="570" y="130" fill="#FF9800" font-size="12" font-weight="bold" text-anchor="middle">Google Ads</text>
  <text x="570" y="147" fill="#a0a0b0" font-size="9" text-anchor="middle">Topics API, Targeting</text>
  <!-- Third parties -->
  <rect x="500" y="180" width="140" height="55" fill="#2a2a4a" stroke="#9C27B0" stroke-width="2" rx="8"/>
  <text x="570" y="205" fill="#9C27B0" font-size="12" font-weight="bold" text-anchor="middle">3rd Party</text>
  <text x="570" y="222" fill="#a0a0b0" font-size="9" text-anchor="middle">Analytics, Trackers</text>
  <!-- Arrows from chrome to destinations -->
  <line x1="385" y1="100" x2="495" y2="60" stroke="#f44336" stroke-width="2" marker-end="url(#arrowRed)"/>
  <line x1="385" y1="115" x2="495" y2="130" stroke="#FF9800" stroke-width="2" marker-end="url(#arrowOrange)"/>
  <line x1="385" y1="130" x2="495" y2="200" stroke="#9C27B0" stroke-width="2" marker-end="url(#arrowPurple)"/>
  <!-- Data labels on arrows -->
  <text x="440" y="72" fill="#f44336" font-size="9" text-anchor="middle">URLs, telemetry</text>
  <text x="445" y="117" fill="#FF9800" font-size="9" text-anchor="middle">interests, behavior</text>
  <text x="445" y="172" fill="#9C27B0" font-size="9" text-anchor="middle">fingerprint, cookies</text>
  <!-- Bottom comparison -->
  <line x1="50" y1="270" x2="750" y2="270" stroke="#4a4a6a" stroke-width="1" stroke-dasharray="5,5"/>
  <text x="400" y="295" fill="#4CAF50" font-size="14" font-weight="bold" text-anchor="middle">What a privacy-first browser sends: nothing.</text>
  <rect x="200" y="310" width="400" height="45" fill="#1a3a1a" stroke="#4CAF50" stroke-width="1" rx="8"/>
  <text x="400" y="332" fill="#4CAF50" font-size="12" text-anchor="middle">Nav0: Zero telemetry. Zero sync servers.</text>
  <text x="400" y="347" fill="#4CAF50" font-size="12" text-anchor="middle">Your data stays on YOUR machine.</text>
  <!-- Arrow markers -->
  <defs>
    <marker id="arrowBlue" markerWidth="10" markerHeight="7" refX="10" refY="3.5" orient="auto">
      <polygon points="0 0, 10 3.5, 0 7" fill="#64B5F6"/>
    </marker>
    <marker id="arrowRed" markerWidth="10" markerHeight="7" refX="10" refY="3.5" orient="auto">
      <polygon points="0 0, 10 3.5, 0 7" fill="#f44336"/>
    </marker>
    <marker id="arrowOrange" markerWidth="10" markerHeight="7" refX="10" refY="3.5" orient="auto">
      <polygon points="0 0, 10 3.5, 0 7" fill="#FF9800"/>
    </marker>
    <marker id="arrowPurple" markerWidth="10" markerHeight="7" refX="10" refY="3.5" orient="auto">
      <polygon points="0 0, 10 3.5, 0 7" fill="#9C27B0"/>
    </marker>
  </defs>
</svg>
