<svg width="512" height="512" viewBox="0 0 512 512" fill="none" xmlns="http://www.w3.org/2000/svg">
  <defs>
    <linearGradient id="redL" x1="234" y1="6" x2="256" y2="240" gradientUnits="userSpaceOnUse">
      <stop offset="0%" stop-color="#ef4444" />
      <stop offset="100%" stop-color="#dc2626" />
    </linearGradient>
    <linearGradient id="redR" x1="256" y1="6" x2="278" y2="240" gradientUnits="userSpaceOnUse">
      <stop offset="0%" stop-color="#b91c1c" />
      <stop offset="100%" stop-color="#991b1b" />
    </linearGradient>
    <linearGradient id="blueL" x1="234" y1="272" x2="256" y2="506" gradientUnits="userSpaceOnUse">
      <stop offset="0%" stop-color="#3b82f6" />
      <stop offset="100%" stop-color="#2563eb" />
    </linearGradient>
    <linearGradient id="blueR" x1="256" y1="272" x2="278" y2="506" gradientUnits="userSpaceOnUse">
      <stop offset="0%" stop-color="#1d4ed8" />
      <stop offset="100%" stop-color="#1e40af" />
    </linearGradient>
    <mask id="ringMask" maskUnits="userSpaceOnUse" x="0" y="0" width="512" height="512">
      <rect width="512" height="512" fill="white"/>
      <g transform="rotate(-22 256 256)">
        <!-- North gap: trapezoid sides parallel to north needle edges -->
        <polygon points="247.09,30 264.91,30 272.69,95 239.31,95" fill="black"/>
        <!-- South gap: trapezoid sides parallel to south needle edges -->
        <polygon points="239.31,417 272.69,417 264.91,482 247.09,482" fill="black"/>
      </g>
    </mask>
  </defs>
  <!-- White 0 ring with breaks where the needle crosses -->
  <ellipse cx="256" cy="256" rx="138" ry="208" stroke="#bacbde" stroke-width="38" fill="none" mask="url(#ringMask)" />
  <!-- Needle group — tilted left -->
  <g transform="rotate(-22 256 256)">
    <!-- Red north needle — sleek, ends before center -->
    <path d="M256 6 L256 226 L228 240 Z" fill="url(#redL)" />
    <path d="M256 6 L284 240 L256 226 Z" fill="url(#redR)" />
    <!-- Blue south needle — sleek, starts after center -->
    <path d="M256 506 L256 286 L228 272 Z" fill="url(#blueL)" />
    <path d="M256 506 L284 272 L256 286 Z" fill="url(#blueR)" />
  </g>
  <!-- Center pivot -->
  <circle cx="256" cy="256" r="15" fill="#64748b" />
  <circle cx="256" cy="256" r="7" fill="#000000" />
</svg>
