<svg width="512" height="512" viewBox="0 0 512 512" fill="none" xmlns="http://www.w3.org/2000/svg">
  <defs>
    <linearGradient id="redL" x1="234" y1="6" x2="256" y2="240" gradientUnits="userSpaceOnUse">
      <stop offset="0%" stop-color="#ef4444"></stop>
      <stop offset="100%" stop-color="#dc2626"></stop>
    </linearGradient>
    <linearGradient id="redR" x1="256" y1="6" x2="278" y2="240" gradientUnits="userSpaceOnUse">
      <stop offset="0%" stop-color="#b91c1c"></stop>
      <stop offset="100%" stop-color="#991b1b"></stop>
    </linearGradient>
    <linearGradient id="blueL" x1="234" y1="272" x2="256" y2="506" gradientUnits="userSpaceOnUse">
      <stop offset="0%" stop-color="#3b82f6"></stop>
      <stop offset="100%" stop-color="#2563eb"></stop>
    </linearGradient>
    <linearGradient id="blueR" x1="256" y1="272" x2="278" y2="506" gradientUnits="userSpaceOnUse">
      <stop offset="0%" stop-color="#1d4ed8"></stop>
      <stop offset="100%" stop-color="#1e40af"></stop>
    </linearGradient>
    <mask id="ringMask" maskUnits="userSpaceOnUse" x="0" y="0" width="512" height="512">
      <rect width="512" height="512" fill="white"></rect>
      <g transform="rotate(-22 256 256)">
        
        <polygon points="245.4,20 266.6,20 274.85,105 237.15,105" fill="black"></polygon>
        
        <polygon points="237.15,407 274.85,407 266.6,492 245.4,492" fill="black"></polygon>
      </g>
    </mask>
  </defs>
  
  <ellipse cx="256" cy="256" rx="138" ry="208" stroke="#94a3b8" stroke-width="56" fill="none" mask="url(#ringMask)"></ellipse>
  
  <g transform="rotate(-22 256 256)">
    
    <path d="M256 6 L256 226 L228 240 Z" fill="url(#redL)"></path>
    <path d="M256 6 L284 240 L256 226 Z" fill="url(#redR)"></path>
    
    <path d="M256 506 L256 286 L228 272 Z" fill="url(#blueL)"></path>
    <path d="M256 506 L284 272 L256 286 Z" fill="url(#blueR)"></path>
  </g>
  
  <circle cx="256" cy="256" r="15" fill="#64748b"></circle>
  <circle cx="256" cy="256" r="7" fill="#000000"></circle>
</svg>