<svg xmlns="http://www.w3.org/2000/svg" preserveAspectRatio="xMidYMid slice" viewBox="0 0 1920 1200"><path fill="none" stroke="rgba(220,38,38,0.15)" stroke-width=".65" d="M-414-81s45-18 113-41 47-13 115-36 46-14 113-39 45-18 112-44 45-17 112-43 46-15 113-42 44-18 109-49 43-23 108-55 42-22 108-51 44-18 111-45 45-18 112-45 44-20 111-46 44-18 112-41 46-14 115-36 47-12 115-37l111-46"/><path fill="none" stroke="rgba(220,38,38,0.14)" stroke-width=".5" d="m65-245 3-4-5-1M354-366l3-4-5-1M611-486l3-4-5-1M910-608l3-4-5-1"/><path fill="none" stroke="rgba(99,102,241,0.0675)" stroke-width=".3" d="M-371 25s43-23 104-63 39-32 101-71 40-28 105-59 44-18 111-45 45-16 112-44 43-22 110-49 43-21 113-41 47-11 119-24 51-4 122-20 48-9 115-34 45-19 110-49 42-22 108-51 45-17 111-47 45-17 108-52 42-26 103-66l102-68M-364 42s43-21 110-47 44-18 114-38 49-7 118-29 45-15 112-43 44-20 110-49 45-15 110-46 43-24 107-58 41-26 107-55 45-16 113-40 45-16 113-40 44-18 113-40 48-10 117-32 46-13 112-42 42-23 107-55 45-19 110-50l108-52"/><path fill="none" stroke="rgba(79,70,229,0.15)" stroke-width=".65" d="M-330 126s45-17 110-48 43-22 107-55S-71 0-6-31s44-20 111-48 44-17 111-44 44-19 111-46 43-20 111-44 46-16 115-37 47-12 116-34 46-14 113-40 44-18 110-47 44-20 111-48 45-16 111-45 44-19 109-51 43-24 107-56l108-52"/><path fill="none" stroke="rgba(220,38,38,0.14)" stroke-width=".5" d="m129-87 3-4h-5M451-211l3-4-5-1M784-324l3-4-5-1M1053-435l3-5h-5"/><path fill="none" stroke="rgba(99,102,241,0.0675)" stroke-width=".3" d="M-309 180s46-16 113-42 46-15 111-46 43-23 107-56 41-24 107-53 45-18 112-45 44-18 111-45 43-20 111-44 46-16 115-37 48-11 116-34 45-16 111-44 44-20 110-49 45-17 111-46 44-19 109-51 42-24 107-55 43-23 110-49l113-39M-279 252s45-16 112-43 47-12 110-47 40-30 101-71 38-33 103-65 45-17 113-41 45-17 113-40 43-21 114-38 50-4 122-19 50-4 117-30 43-23 107-56 43-22 107-55 45-17 108-54 38-32 101-69 40-29 108-53 49-9 119-27l116-32"/><path fill="none" stroke="rgba(220,38,38,0.15)" stroke-width=".65" d="M-263 294s44-20 108-54 42-25 106-58 40-30 109-51 50-5 121-20 48-10 117-31 45-17 113-40 49-6 114-38 41-27 103-67 39-33 103-66 45-16 111-44 42-25 110-48 46-15 118-29 52 1 122-19 44-18 110-47 45-18 110-49l107-55"/><path fill="none" stroke="rgba(220,38,38,0.14)" stroke-width=".5" d="m205 104 3-4-5-1M486 17l3-4h-5M759-139l3-4-5-1M1121-257l3-4-5-1"/><path fill="none" stroke="rgba(99,102,241,0.0675)" stroke-width=".3" d="M-241 348s41-26 106-58 43-23 110-48 46-14 115-36 47-13 115-36 45-17 113-41 45-16 114-38 47-11 115-35 46-14 111-45 43-23 107-57 42-24 107-55 44-19 110-49 44-20 109-50 43-23 109-51 43-20 112-42 47-11 117-31l116-34M-211 421s44-19 111-45 45-14 112-42 46-17 110-50 41-27 105-60 43-22 110-49 45-16 112-42 44-20 112-43 47-13 116-33 48-9 115-35 43-20 109-50 44-19 110-49 45-19 109-52 41-28 106-58 44-19 112-43 47-13 115-36l113-40"/><path fill="none" stroke="rgba(79,70,229,0.15)" stroke-width=".65" d="M-194 464s42-26 107-57 43-22 111-45 47-12 116-33 47-13 115-36 44-18 112-42 46-15 115-37 48-10 115-36 45-17 109-49 42-25 106-59 42-24 107-55 44-18 110-47 43-20 109-50 43-24 110-50 44-17 114-37 48-9 118-29l115-37"/><path fill="none" stroke="rgba(220,38,38,0.14)" stroke-width=".5" d="m279 285 3-4-5-1M680 141l3-4-5-1M1043-40l3-4-5-1"/><path fill="none" stroke="rgba(99,102,241,0.0675)" stroke-width=".3" d="M-168 528s46-15 116-34 49-5 117-29 45-18 109-52 41-27 105-60 45-18 109-50 41-26 106-58 42-27 110-50 48-9 118-27 47-11 116-33 45-18 113-41 48-9 115-36 45-17 108-53 39-31 103-66 43-21 109-50 44-19 110-47l111-46M-132 616s43-21 106-57 41-28 104-64 41-25 106-56 44-19 111-46 45-17 112-44 43-20 110-47 44-21 113-42 46-12 117-29 49-7 119-26 47-12 114-38 44-20 110-50 43-20 109-49 45-16 111-46 44-18 108-53 42-25 105-62l105-60"/><path fill="none" stroke="rgba(220,38,38,0.15)" stroke-width=".65" d="M-114 663s44-21 107-57 40-29 104-62 43-23 110-49 47-13 115-36 45-16 113-40 44-18 113-40 47-13 117-32 48-8 116-32 46-16 111-48 42-24 106-57 43-21 108-52 44-18 109-50 43-24 107-57 41-26 108-52 45-16 115-36l117-31"/><path fill="none" stroke="rgba(220,38,38,0.14)" stroke-width=".5" d="m345 449 3-4-5-1M661 353l3-4h-5M984 225l3-4-5-1M1256 84l3-4-5-1"/><path fill="none" stroke="rgba(99,102,241,0.0675)" stroke-width=".3" d="M-93 713s40-28 102-67 38-34 104-63 45-15 116-32 50-5 121-23 46-15 115-36 46-15 116-33 50-3 118-26 47-13 110-50 39-32 100-72 41-28 105-61 45-18 109-50 41-25 106-57 41-28 111-48 48-8 121-20 51-2 121-20l114-40"/><path fill="none" stroke="rgba(99,102,241,0.0675)" stroke-width=".3" d="M-65 783s45-17 107-55 39-30 101-70 38-37 105-62 48-8 120-22 49-7 120-24 45-17 116-34 51-2 120-23 48-10 110-48 36-37 97-79 41-26 105-60 44-20 108-53 39-33 107-57 48-12 121-22 53 5 124-11 45-16 113-41l113-41"/><path fill="none" stroke="rgba(79,70,229,0.15)" stroke-width=".65" d="M-45 833s43-22 106-59 38-34 103-65 44-20 114-38 50-5 121-22 46-14 115-35 45-15 115-35 51-5 118-30 45-16 107-54 38-34 100-72 42-24 107-56 45-19 110-50 40-28 107-54 44-18 116-33 51-1 123-16 48-10 116-34l110-47"/><path fill="none" stroke="rgba(220,38,38,0.14)" stroke-width=".5" d="m422 640 3-4-5-1M712 561l3-4-5-1M991 410l3-4h-5M1338 252l3-4h-5"/><path fill="none" stroke="rgba(99,102,241,0.0675)" stroke-width=".3" d="M-13 911s42-23 107-54 46-16 110-50 41-28 104-63 40-28 107-54 48-11 117-31 45-16 114-37 47-13 117-33 49-6 115-34 41-25 105-60 43-24 107-57 44-20 108-52 40-29 107-55 47-13 117-31 49-7 118-28 45-18 113-42l114-39M8 964s44-20 109-52 42-23 107-55 43-21 109-50 44-18 111-45 45-17 112-44 44-19 111-46 44-19 112-43 45-15 114-37 48-12 116-35 45-15 112-42 44-19 110-48 44-19 110-47 45-17 111-46 45-18 110-49 43-22 108-54l108-52"/><path fill="none" stroke="rgba(220,38,38,0.15)" stroke-width=".65" d="M31 1020s45-17 110-48 42-23 106-56 42-25 108-54 45-17 113-41 45-15 113-40 45-19 113-43 45-15 114-36 47-11 115-35 45-16 111-46 43-23 108-54 44-19 110-49 44-19 109-50 43-24 108-54 43-22 110-47 46-13 115-35l115-37"/><path fill="none" stroke="rgba(220,38,38,0.14)" stroke-width=".5" d="m492 813 3-4-5-1M862 689l3-4-5-1M1154 568l3-4-5-1M1420 440l2-4-4-1"/><path fill="none" stroke="rgba(99,102,241,0.0675)" stroke-width=".3" d="M42 1048s40-27 107-55 45-17 115-37 48-11 117-31 46-14 114-37 45-18 114-39 46-14 116-32 49-7 118-29 47-12 112-43 43-23 106-59 40-27 104-62 43-22 108-53 44-18 109-50 43-23 107-56 41-26 107-55 44-20 114-40l119-25"/><path fill="none" stroke="rgba(99,102,241,0.0675)" stroke-width=".3" d="M88 1161s43-23 108-53 47-11 110-47 40-30 100-73 36-39 101-71 47-14 116-34 45-15 115-34 45-17 117-30 54 4 124-14 47-12 111-47 39-31 102-68 44-18 107-55 40-30 102-68 37-34 106-57 51-5 123-18 48-8 118-26l116-35"/><path fill="none" stroke="rgba(79,70,229,0.15)" stroke-width=".65" d="M88 1161s47-12 120-24 51-1 122-17 48-10 115-36 44-21 110-49 45-15 111-43 47-15 110-51 39-28 100-70 38-35 102-69 43-21 111-45 48-12 116-35 44-19 112-42 45-17 116-33 50-5 122-19 51-4 118-29 43-21 107-55l105-59"/><path fill="none" stroke="rgba(220,38,38,0.14)" stroke-width=".5" d="m582 1035 3-4h-5M929 841l3-4h-5M1291 691l3-4h-5"/><path fill="none" stroke="rgba(99,102,241,0.0675)" stroke-width=".3" d="M116 1230s44-19 112-42 47-12 116-33 47-13 115-36 45-16 113-41 45-18 113-41 46-13 114-37 46-14 112-43 44-21 108-55 41-25 105-58 43-23 109-52 45-18 111-46 44-19 110-48 42-22 109-49 45-19 114-40 47-12 117-31l116-33M154 1326s46-15 111-47 42-23 105-59 40-30 105-62 44-20 111-45 46-14 114-38 45-19 113-42 45-15 115-34 49-7 118-28 47-13 113-42 42-24 106-56 44-21 109-52 45-19 109-52 41-26 105-59 42-26 109-51 46-13 116-33l116-33"/><path fill="none" stroke="rgba(220,38,38,0.15)" stroke-width=".65" d="M171 1367s42-26 107-57 43-22 110-47 45-15 114-37 47-13 115-37 44-18 112-42 45-16 114-38 48-11 116-35 45-14 111-44 44-22 108-55 42-24 107-55 44-19 110-48 44-18 109-49 42-24 108-53 44-22 112-45 46-13 115-33l116-34"/><path fill="none" stroke="rgba(220,38,38,0.14)" stroke-width=".5" d="m641 1181 3-4-5-1M978 1067l3-4-5-1M1311 914l3-4-5-1"/><path fill="none" stroke="rgba(99,102,241,0.0675)" stroke-width=".3" d="M200 1438s48-10 116-33 45-16 112-43 43-20 110-47 45-17 112-44 46-16 111-46 44-19 107-55 41-27 104-64 41-27 106-58 44-20 111-45 45-15 113-39 46-16 113-41 44-19 112-43 45-17 115-36 49-10 119-28 48-9 116-32l111-45M228 1509s44-21 109-52 42-21 108-51 45-19 111-48 44-19 109-50 43-22 108-54 42-24 108-52 44-19 112-42 46-14 115-36 47-14 115-37 45-16 112-41 45-18 113-42 46-15 114-38 46-14 113-40 45-17 110-48 43-23 107-56l108-55"/><path fill="none" stroke="rgba(79,70,229,0.15)" stroke-width=".65" d="M248 1559s41-27 104-65 40-30 105-61 43-19 112-41 48-11 117-32 45-16 113-39 45-17 115-37 48-9 118-28 49-8 116-34 43-19 107-54 41-27 105-61 43-21 108-53 45-19 109-52 41-26 105-59 41-26 109-50 46-14 117-31l119-26"/><path fill="none" stroke="rgba(220,38,38,0.14)" stroke-width=".5" d="m709 1349 3-4-5-1M1023 1262l3-4-5-1M1339 1128l3-4-5-1"/><path fill="none" stroke="rgba(99,102,241,0.0675)" stroke-width=".3" d="M278 1631s43-20 108-52 43-22 108-53 44-20 110-49 44-18 109-49 43-22 108-54 42-24 108-52 44-18 113-41 47-13 116-34 47-13 115-37 45-17 112-42 45-16 113-40 47-14 114-39 46-15 111-45 43-21 107-55 42-25 107-57l109-50"/><path fill="none" stroke="rgba(99,102,241,0.0675)" stroke-width=".3" d="M285 1649s45-17 118-28 54 5 126-9 49-9 114-39 40-27 104-62 45-18 108-53 42-22 103-64 35-40 99-75 43-23 113-42 50-4 121-20 46-16 116-34 47-12 119-27 52 2 120-22 45-19 106-59 37-36 99-75 43-22 107-56l106-58"/><path fill="none" stroke="rgba(220,38,38,0.15)" stroke-width=".65" d="m322 1741 108-54c64-32 42-24 107-54s44-20 111-47 44-17 111-44 45-18 112-45 44-20 111-46 44-18 112-41 46-14 115-36 47-12 115-36 45-16 112-43 44-18 110-47 45-20 111-48 44-18 110-46 45-18 110-48 43-21 108-53l108-53"/><path fill="none" stroke="rgba(220,38,38,0.14)" stroke-width=".5" d="m783 1532 2-4-4-1M1177 1388l3-4-5-1M1542 1254l3-4h-5"/><path fill="none" stroke="rgba(99,102,241,0.0675)" stroke-width=".3" d="M338 1780s44-21 113-41 48-8 118-27 48-9 115-36 43-22 108-53 44-19 109-50 44-19 108-53 40-29 105-61 43-22 111-45 48-10 117-32 44-18 113-40 47-13 116-34 48-8 115-35 43-21 107-55 42-27 106-59 44-18 109-49l108-54M368 1855l105-60c63-36 40-30 106-60s44-19 113-40 48-10 117-30 45-15 114-38 45-17 115-37 48-8 117-30 47-11 112-43 41-26 104-62 41-26 106-58 45-19 110-50 42-21 107-53 42-26 109-52 46-16 116-33 49-6 119-25l115-38"/><path fill="none" stroke="rgba(79,70,229,0.15)" stroke-width=".65" d="M389 1908s41-27 105-61 41-27 108-53 47-13 117-32 48-9 117-30 45-16 114-39 46-15 115-36 49-8 116-34 45-18 108-53 40-29 103-65 42-24 107-55 45-18 110-48 42-23 108-52 43-23 112-44 48-9 119-25 49-6 118-28l112-44"/><path fill="none" stroke="rgba(220,38,38,0.14)" stroke-width=".5" d="m860 1724 3-4-5-1M1224 1601l3-4h-5M1541 1431l3-4h-4"/><path fill="none" stroke="rgba(99,102,241,0.0675)" stroke-width=".3" d="M403 1940s44-19 114-38 48-7 119-24 48-9 117-31 45-17 113-41 46-16 114-39 47-12 114-38 45-15 109-50 41-28 103-67 40-29 104-62 44-20 110-48 45-17 111-45 43-22 110-48 43-20 113-40 48-10 120-25 50-5 119-25l112-42"/></svg>
