<svg xmlns="http://www.w3.org/2000/svg" width="1920" height="1080" viewBox="0 0 1920 1080">
  <g fill="none" stroke="rgba(0,0,0,0.15)" stroke-linecap="round">
    <!-- Layer 1: Primary wind currents -->
    <g stroke-width="1.2">
      <path d="M-100,120 C200,80 400,200 600,140 S900,60 1100,160 S1400,240 1600,120 S1900,80 2100,180"/>
      <path d="M-80,280 C150,240 380,340 580,260 S820,180 1020,300 S1300,380 1520,260 S1780,200 2020,320"/>
      <path d="M-60,440 C180,400 420,520 640,420 S880,340 1080,460 S1340,540 1560,440 S1820,360 2060,480"/>
      <path d="M-40,600 C200,560 440,680 660,580 S920,500 1120,620 S1380,700 1580,600 S1840,520 2080,640"/>
      <path d="M-20,760 C220,720 460,840 680,740 S960,660 1160,780 S1420,860 1620,760 S1860,680 2100,800"/>
      <path d="M0,920 C240,880 480,1000 700,900 S1000,820 1200,940 S1460,1020 1660,920 S1880,840 2120,960"/>
    </g>
    <!-- Layer 2: Secondary currents -->
    <g stroke-width="0.8" opacity="0.6">
      <path d="M-50,60 C300,30 500,120 750,80 S1050,20 1300,100 S1550,160 1800,60 S2000,40 2100,100"/>
      <path d="M-30,200 C250,170 480,280 720,200 S980,140 1220,240 S1480,300 1720,200 S1940,160 2080,240"/>
      <path d="M-10,360 C280,330 500,440 740,360 S1000,300 1240,400 S1500,460 1740,360 S1960,320 2100,400"/>
      <path d="M10,520 C300,490 520,600 760,520 S1020,460 1260,560 S1520,620 1760,520 S1980,480 2120,560"/>
      <path d="M30,680 C320,650 540,760 780,680 S1040,620 1280,720 S1540,780 1780,680 S2000,640 2140,720"/>
      <path d="M50,840 C340,810 560,920 800,840 S1060,780 1300,880 S1560,940 1800,840 S2020,800 2160,880"/>
      <path d="M70,1000 C360,970 580,1060 820,1000 S1080,940 1320,1040 S1580,1080 1820,1000 S2040,960 2180,1040"/>
    </g>
    <!-- Layer 3: Fine detail currents -->
    <g stroke-width="0.5" opacity="0.35">
      <path d="M-100,170 C100,150 350,220 550,170 S800,110 1000,200 S1250,260 1450,170 S1700,130 1950,210"/>
      <path d="M-80,330 C120,310 370,380 570,330 S820,270 1020,360 S1270,420 1470,330 S1720,290 1970,370"/>
      <path d="M-60,490 C140,470 390,540 590,490 S840,430 1040,520 S1290,580 1490,490 S1740,450 1990,530"/>
      <path d="M-40,650 C160,630 410,700 610,650 S860,590 1060,680 S1310,740 1510,650 S1760,610 2010,690"/>
      <path d="M-20,810 C180,790 430,860 630,810 S880,750 1080,840 S1330,900 1530,810 S1780,770 2030,850"/>
      <path d="M0,970 C200,950 450,1020 650,970 S900,910 1100,1000 S1350,1060 1550,970 S1800,930 2050,1010"/>
    </g>
  </g>
</svg>
